Coordinates
version=1
nRows=25
nColumns=34
inDegrees=no

Units are S.I. units (second, meters, Newtons, ...)
If the header above contains a line with 'inDegrees', this indicates whether rotational values are in degrees (yes) or radians (no).

endheader
time	pelvis_tilt	pelvis_list	pelvis_rotation	pelvis_tx	pelvis_ty	pelvis_tz	hip_flexion_r	hip_adduction_r	hip_rotation_r	knee_angle_r	ankle_angle_r	subtalar_angle_r	mtp_angle_r	hip_flexion_l	hip_adduction_l	hip_rotation_l	knee_angle_l	ankle_angle_l	subtalar_angle_l	mtp_angle_l	lumbar_extension	lumbar_bending	lumbar_rotation	arm_flex_r	arm_add_r	arm_rot_r	elbow_flex_r	pro_sup_r	arm_flex_l	arm_add_l	arm_rot_l	elbow_flex_l	pro_sup_l
1.51	-0.291904	-0.0584598	-0.000508285	-0.270029	0.698816	-0.588767	1.24581	-0.095523	-0.0973857	1.49072	0.401311	-0.278707	-0.14464	1.28414	-0.292417	-0.00399706	1.57094	0.422967	-0.0655623	-0.14487	-0.531487	0.00309277	-0.0560722	1.96653	-0.326407	0.392737	2.08001	0.396095	2.20591	-0.523537	0.644718	2.00749	1.69024
1.52	-0.283027	-0.0604026	0.00486571	-0.261398	0.714795	-0.589082	1.19735	-0.0944549	-0.10535	1.44802	0.372092	-0.295386	-0.14464	1.23705	-0.296327	-0.0178193	1.52962	0.399069	-0.0618268	-0.144871	-0.503828	0.00691722	-0.0713752	1.96585	-0.356133	0.40546	2.11679	0.286447	2.22354	-0.530721	0.661645	1.9997	1.70637
1.53	-0.273313	-0.0617435	0.0112268	-0.252328	0.731998	-0.589443	1.14448	-0.0946636	-0.114228	1.39946	0.340026	-0.310112	-0.14464	1.18477	-0.2984	-0.0326531	1.48133	0.372356	-0.05813	-0.144871	-0.474625	0.0100834	-0.0869882	1.9555	-0.390743	0.425691	2.15093	0.250575	2.23072	-0.541598	0.682657	1.9911	1.72107
1.54	-0.262799	-0.061896	0.0184378	-0.242825	0.750533	-0.589859	1.08636	-0.0963425	-0.124094	1.34303	0.304089	-0.321458	-0.14464	1.12618	-0.297594	-0.0484416	1.4236	0.340614	-0.0548258	-0.144872	-0.443932	0.0117114	-0.102006	1.93337	-0.430856	0.452661	2.1822	0.296976	2.22537	-0.555674	0.7068	1.98171	1.7327
1.55	-0.251502	-0.060213	0.0262644	-0.232891	0.770507	-0.590339	1.02206	-0.0995973	-0.135065	1.27654	0.26269	-0.327847	-0.144639	1.06008	-0.292828	-0.0651594	1.35367	0.301119	-0.052307	-0.144872	-0.411885	0.0108536	-0.115476	1.89674	-0.476457	0.483925	2.21086	0.418338	2.2053	-0.572161	0.73246	1.97142	1.73974
1.56	-0.239416	-0.0560816	0.0344023	-0.222529	0.792004	-0.590895	0.950771	-0.104424	-0.147356	1.19778	0.213794	-0.327739	-0.144639	0.985398	-0.283074	-0.0828332	1.26882	0.250953	-0.0510727	-0.144872	-0.378746	0.00666225	-0.126478	1.84257	-0.526758	0.515641	2.23732	0.593104	2.16854	-0.589985	0.757506	1.96	1.74089
1.57	-0.226514	-0.0490426	0.0425073	-0.211745	0.81505	-0.591546	0.871968	-0.110686	-0.161316	1.10503	0.155213	-0.319874	-0.144639	0.901437	-0.267501	-0.101571	1.16689	0.187509	-0.0517981	-0.144873	-0.344929	-0.00141771	-0.134195	1.76812	-0.580173	0.543222	2.26162	0.791105	2.11364	-0.607817	0.779529	1.9469	1.73539
1.58	-0.212775	-0.0389076	0.0502269	-0.200581	0.839592	-0.592314	0.785646	-0.118099	-0.177408	0.997452	0.0851003	-0.303542	-0.144639	0.808197	-0.245639	-0.1216	1.04698	0.109155	-0.05537	-0.144873	-0.311004	-0.0134715	-0.137968	1.67154	-0.634423	0.562337	2.28259	0.984463	2.03997	-0.624147	0.796169	1.9312	1.72339
1.59	-0.198223	-0.0258435	0.0572268	-0.189137	0.865473	-0.593229	0.692594	-0.126245	-0.196131	0.875681	0.00258757	-0.278806	-0.144639	0.706691	-0.217554	-0.143312	0.910079	0.0159619	-0.0628357	-0.144874	-0.277665	-0.0290018	-0.137362	1.55269	-0.686735	0.569666	2.29768	1.15258	1.94801	-0.637399	0.80545	1.91158	1.70623
1.6	-0.182969	-0.0104105	0.063206	-0.177583	0.892398	-0.594325	0.594613	-0.13461	-0.217874	0.742308	-0.0915471	-0.246671	-0.144639	0.599172	-0.183993	-0.167266	0.759682	-0.0896725	-0.0752423	-0.144874	-0.245671	-0.0469124	-0.132237	1.41354	-0.734125	0.563426	2.30322	1.28372	1.8395	-0.646098	0.806061	1.88646	1.68634
1.61	-0.167214	0.00644605	0.0678971	-0.166168	0.919941	-0.595629	0.494622	-0.142638	-0.242717	0.602165	-0.194383	-0.20914	-0.144639	0.489194	-0.146454	-0.194122	0.602051	-0.202746	-0.0933685	-0.144874	-0.215783	-0.0656042	-0.122809	1.25849	-0.773724	0.543638	2.29494	1.37466	1.71737	-0.649068	0.797511	1.8542	1.66669
1.62	-0.151201	0.0234947	0.0710812	-0.15518	0.94757	-0.59715	0.396535	-0.14979	-0.270248	0.462244	-0.300767	-0.169121	-0.144638	0.381419	-0.107149	-0.224452	0.445979	-0.315994	-0.117383	-0.144875	-0.188731	-0.083154	-0.109665	1.09417	-0.803129	0.512126	2.26858	1.42877	1.58565	-0.645589	0.780068	1.81342	1.65026
1.63	-0.135291	0.0393435	0.0725937	-0.144911	0.974714	-0.598858	0.304867	-0.155614	-0.299446	0.331136	-0.403862	-0.130133	-0.144638	0.281118	-0.0688136	-0.258395	0.301928	-0.421042	-0.14651	-0.144875	-0.16528	-0.0975641	-0.0937315	0.928812	-0.820708	0.472222	2.22072	1.45334	1.44902	-0.635479	0.754576	1.76321	1.63963
1.64	-0.119835	0.0526147	0.0723516	-0.135653	1.00089	-0.60068	0.224154	-0.159815	-0.328674	0.217927	-0.496405	-0.0957808	-0.144638	0.193459	-0.0343418	-0.295244	0.180501	-0.510217	-0.178807	-0.144876	-0.146224	-0.107062	-0.0761799	0.77124	-0.825801	0.428187	2.14929	1.45693	1.31242	-0.619069	0.722222	1.7033	1.63654
1.65	-0.1051	0.0621632	0.0703804	-0.127709	1.02588	-0.60253	0.158257	-0.162304	-0.355837	0.130743	-0.572387	-0.0690294	-0.144638	0.122662	-0.00633859	-0.333114	0.0905856	-0.578396	-0.211178	-0.144876	-0.132393	-0.110378	-0.0582757	0.629698	-0.818752	0.384462	2.05396	1.44735	1.18058	-0.597108	0.684393	1.63416	1.64108
1.66	-0.0912084	0.0672539	0.0668251	-0.121325	1.0497	-0.604333	0.109712	-0.163201	-0.378692	0.0752859	-0.628476	-0.0514886	-0.144638	0.0712715	0.0132854	-0.369026	0.0377378	-0.623946	-0.239655	-0.144877	-0.124622	-0.106939	-0.0412137	0.510729	-0.80079	0.344904	1.9363	1.43037	1.05755	-0.570631	0.642603	1.55701	1.65149
1.67	-0.078119	0.0676766	0.061954	-0.116602	1.07248	-0.606031	0.0793485	-0.1628	-0.395256	0.0538603	-0.664469	-0.0430409	-0.144638	0.0398568	0.0235862	-0.399529	0.0234633	-0.648336	-0.259986	-0.144877	-0.123655	-0.0969472	-0.0259782	0.41838	-0.773776	0.312167	1.79963	1.4093	0.946416	-0.540841	0.598487	1.47368	1.66444
1.68	-0.0656108	0.0637884	0.0561334	-0.113524	1.09428	-0.607588	0.0662119	-0.161541	-0.404183	0.0651684	-0.682706	-0.0419697	-0.144637	0.0271294	0.0246913	-0.421663	0.0453741	-0.65499	-0.268487	-0.144877	-0.130054	-0.0813414	-0.0132361	0.353819	-0.739914	0.287311	1.64878	1.38532	0.849117	-0.508986	0.553843	1.38647	1.67565
1.69	-0.0533537	0.0564493	0.049777	-0.111971	1.11506	-0.608983	0.0678702	-0.15997	-0.405071	0.104803	-0.686968	-0.0455352	-0.144637	0.0302728	0.0177802	-0.433864	0.0976991	-0.648175	-0.262878	-0.144878	-0.144023	-0.0616484	-0.00327239	0.315422	-0.701484	0.269702	1.48965	1.35864	0.766418	-0.476246	0.510626	1.2979	1.68098
1.7	-0.041082	0.0468631	0.0432946	-0.111721	1.13478	-0.610213	0.0810273	-0.158703	-0.398569	0.166211	-0.681498	-0.0508023	-0.144637	0.0454257	0.00492977	-0.436336	0.172005	-0.632335	-0.242904	-0.144878	-0.165179	-0.0397399	0.00399824	0.299251	-0.660622	0.25725	1.32868	1.32993	0.698005	-0.443655	0.470873	1.21041	1.67789
1.71	-0.0287382	0.0363884	0.037052	-0.112479	1.15333	-0.611284	0.102159	-0.158381	-0.386263	0.241816	-0.670359	-0.0553648	-0.144637	0.068296	-0.0112195	-0.430765	0.258351	-0.611633	-0.210546	-0.144879	-0.19241	-0.017572	0.00895654	0.299816	-0.619177	0.246968	1.17219	1.30119	0.642689	-0.412069	0.436595	1.12628	1.66608
1.72	-0.0165588	0.0263412	0.0313455	-0.113911	1.17063	-0.612218	0.128028	-0.159595	-0.370332	0.324013	-0.656979	-0.0577884	-0.144637	0.0947798	-0.0278948	-0.419568	0.346626	-0.589555	-0.169756	-0.144879	-0.2239	0.00307307	0.0121508	0.310999	-0.578636	0.235788	1.02585	1.27577	0.598657	-0.382167	0.409611	1.0475	1.64728
1.73	-0.00507974	0.0178095	0.0263847	-0.115679	1.18665	-0.613043	0.15599	-0.162758	-0.35308	0.405939	-0.643817	-0.0577182	-0.144637	0.121452	-0.0426284	-0.405155	0.427809	-0.568563	-0.125682	-0.14488	-0.257338	0.0208065	0.0141643	0.326949	-0.540127	0.221443	0.894116	1.25745	0.563758	-0.354493	0.391346	0.97578	1.62469
1.74	0.00499413	0.0114726	0.0222765	-0.117483	1.20135	-0.613773	0.184091	-0.167995	-0.336508	0.481948	-0.632166	-0.0556902	-0.144637	0.145828	-0.0536056	-0.389465	0.494899	-0.549897	-0.0836266	-0.14488	-0.290253	0.0347636	0.0155209	0.342799	-0.504457	0.203171	0.779929	1.24883	0.535765	-0.329481	0.382677	0.912528	1.6017
1.75	0.0130013	0.00758673	0.0190063	-0.119087	1.21476	-0.614406	0.211005	-0.17506	-0.322017	0.547847	-0.622092	-0.052728	-0.144636	0.166375	-0.0598465	-0.373788	0.543373	-0.533614	-0.0481234	-0.14488	-0.320375	0.0446671	0.0166326	0.355094	-0.472167	0.182001	0.684624	1.25038	0.512576	-0.30748	0.383785	0.858783	1.5811
